<svg width="400" height="400" viewBox="0 0 400 400" xmlns="http://www.w3.org/2000/svg">
  <defs>
    <!-- Definizione dei colori -->
    <style>
      .lightgold { fill: #FFE55C; stroke: #FFE55C; }
      .goldstar { fill: #FFD700; stroke: #FFD700; }
      .darkgold { fill: #B8860B; stroke: #B8860B; }
    </style>
    
    <!-- Gradiente radiale per la stella -->
    <radialGradient id="starGradient" cx="50%" cy="50%" r="50%">
      <stop offset="0%" style="stop-color:white;stop-opacity:1" />
      <stop offset="100%" style="stop-color:#FFD700;stop-opacity:1" />
    </radialGradient>
  </defs>
  
  <!-- Gruppo principale centrato -->
  <g transform="translate(200,200)">
    
    <!-- Raggi luminosi di sfondo (linee principali) -->
    <g opacity="0.6">
      <!-- Raggi a 0, 45, 90, 135, 180, 225, 270, 315 gradi -->
      <line x1="0" y1="0" x2="160" y2="0" stroke="#FFE55C" stroke-width="32" opacity="0.6"/>
      <line x1="0" y1="0" x2="113" y2="-113" stroke="#FFE55C" stroke-width="32" opacity="0.6"/>
      <line x1="0" y1="0" x2="0" y2="-160" stroke="#FFE55C" stroke-width="32" opacity="0.6"/>
      <line x1="0" y1="0" x2="-113" y2="-113" stroke="#FFE55C" stroke-width="32" opacity="0.6"/>
      <line x1="0" y1="0" x2="-160" y2="0" stroke="#FFE55C" stroke-width="32" opacity="0.6"/>
      <line x1="0" y1="0" x2="-113" y2="113" stroke="#FFE55C" stroke-width="32" opacity="0.6"/>
      <line x1="0" y1="0" x2="0" y2="160" stroke="#FFE55C" stroke-width="32" opacity="0.6"/>
      <line x1="0" y1="0" x2="113" y2="113" stroke="#FFE55C" stroke-width="32" opacity="0.6"/>
    </g>
    
    <!-- Raggi dorati medi -->
    <g opacity="0.8">
      <line x1="0" y1="0" x2="140" y2="0" stroke="#FFD700" stroke-width="16" opacity="0.8"/>
      <line x1="0" y1="0" x2="99" y2="-99" stroke="#FFD700" stroke-width="16" opacity="0.8"/>
      <line x1="0" y1="0" x2="0" y2="-140" stroke="#FFD700" stroke-width="16" opacity="0.8"/>
      <line x1="0" y1="0" x2="-99" y2="-99" stroke="#FFD700" stroke-width="16" opacity="0.8"/>
      <line x1="0" y1="0" x2="-140" y2="0" stroke="#FFD700" stroke-width="16" opacity="0.8"/>
      <line x1="0" y1="0" x2="-99" y2="99" stroke="#FFD700" stroke-width="16" opacity="0.8"/>
      <line x1="0" y1="0" x2="0" y2="140" stroke="#FFD700" stroke-width="16" opacity="0.8"/>
      <line x1="0" y1="0" x2="99" y2="99" stroke="#FFD700" stroke-width="16" opacity="0.8"/>
    </g>
    
    <!-- Raggi bianchi interni -->
    <g opacity="0.9">
      <line x1="0" y1="0" x2="120" y2="0" stroke="white" stroke-width="8" opacity="0.9"/>
      <line x1="0" y1="0" x2="85" y2="-85" stroke="white" stroke-width="8" opacity="0.9"/>
      <line x1="0" y1="0" x2="0" y2="-120" stroke="white" stroke-width="8" opacity="0.9"/>
      <line x1="0" y1="0" x2="-85" y2="-85" stroke="white" stroke-width="8" opacity="0.9"/>
      <line x1="0" y1="0" x2="-120" y2="0" stroke="white" stroke-width="8" opacity="0.9"/>
      <line x1="0" y1="0" x2="-85" y2="85" stroke="white" stroke-width="8" opacity="0.9"/>
      <line x1="0" y1="0" x2="0" y2="120" stroke="white" stroke-width="8" opacity="0.9"/>
      <line x1="0" y1="0" x2="85" y2="85" stroke="white" stroke-width="8" opacity="0.9"/>
    </g>
    
    <!-- Raggi triangolari dorati -->
    <g opacity="0.4">
      <polygon points="0,0 134,17 134,-17" fill="#FFD700" opacity="0.4"/>
      <polygon points="0,0 105,-79 88,-96" fill="#FFD700" opacity="0.4"/>
      <polygon points="0,0 17,-134 -17,-134" fill="#FFD700" opacity="0.4"/>
      <polygon points="0,0 -88,-96 -105,-79" fill="#FFD700" opacity="0.4"/>
      <polygon points="0,0 -134,-17 -134,17" fill="#FFD700" opacity="0.4"/>
      <polygon points="0,0 -105,79 -88,96" fill="#FFD700" opacity="0.4"/>
      <polygon points="0,0 -17,134 17,134" fill="#FFD700" opacity="0.4"/>
      <polygon points="0,0 88,96 105,79" fill="#FFD700" opacity="0.4"/>
    </g>
    
    <!-- Raggi triangolari dorati chiari -->
    <g opacity="0.6">
      <polygon points="0,0 96,13 96,-13" fill="#FFE55C" opacity="0.6"/>
      <polygon points="0,0 75,-57 64,-70" fill="#FFE55C" opacity="0.6"/>
      <polygon points="0,0 13,-96 -13,-96" fill="#FFE55C" opacity="0.6"/>
      <polygon points="0,0 -64,-70 -75,-57" fill="#FFE55C" opacity="0.6"/>
      <polygon points="0,0 -96,-13 -96,13" fill="#FFE55C" opacity="0.6"/>
      <polygon points="0,0 -75,57 -64,70" fill="#FFE55C" opacity="0.6"/>
      <polygon points="0,0 -13,96 13,96" fill="#FFE55C" opacity="0.6"/>
      <polygon points="0,0 64,70 75,57" fill="#FFE55C" opacity="0.6"/>
    </g>
    
    <!-- Stella a 8 punte principale -->
    <polygon points="80,0 38,31 57,57 31,38 0,80 -31,38 -57,57 -38,31 -80,0 -38,-31 -57,-57 -31,-38 0,-80 31,-38 57,-57 38,-31"
             fill="url(#starGradient)" 
             stroke="#B8860B" 
             stroke-width="6"/>
    
    <!-- Bagliori aggiuntivi (angoli intermedi) -->
    <g opacity="0.3">
      <line x1="0" y1="0" x2="95" y2="39" stroke="white" stroke-width="24" opacity="0.3"/>
      <line x1="0" y1="0" x2="39" y2="-95" stroke="white" stroke-width="24" opacity="0.3"/>
      <line x1="0" y1="0" x2="-39" y2="-95" stroke="white" stroke-width="24" opacity="0.3"/>
      <line x1="0" y1="0" x2="-95" y2="-39" stroke="white" stroke-width="24" opacity="0.3"/>
      <line x1="0" y1="0" x2="-95" y2="39" stroke="white" stroke-width="24" opacity="0.3"/>
      <line x1="0" y1="0" x2="-39" y2="95" stroke="white" stroke-width="24" opacity="0.3"/>
      <line x1="0" y1="0" x2="39" y2="95" stroke="white" stroke-width="24" opacity="0.3"/>
      <line x1="0" y1="0" x2="95" y2="-39" stroke="white" stroke-width="24" opacity="0.3"/>
    </g>
    
    <!-- Bagliori dorati -->
    <g opacity="0.5">
      <line x1="0" y1="0" x2="64" y2="26" stroke="#FFE55C" stroke-width="12" opacity="0.5"/>
      <line x1="0" y1="0" x2="26" y2="-64" stroke="#FFE55C" stroke-width="12" opacity="0.5"/>
      <line x1="0" y1="0" x2="-26" y2="-64" stroke="#FFE55C" stroke-width="12" opacity="0.5"/>
      <line x1="0" y1="0" x2="-64" y2="-26" stroke="#FFE55C" stroke-width="12" opacity="0.5"/>
      <line x1="0" y1="0" x2="-64" y2="26" stroke="#FFE55C" stroke-width="12" opacity="0.5"/>
      <line x1="0" y1="0" x2="-26" y2="64" stroke="#FFE55C" stroke-width="12" opacity="0.5"/>
      <line x1="0" y1="0" x2="26" y2="64" stroke="#FFE55C" stroke-width="12" opacity="0.5"/>
      <line x1="0" y1="0" x2="64" y2="-26" stroke="#FFE55C" stroke-width="12" opacity="0.5"/>
    </g>
    
    <!-- Centro luminoso -->
    <circle cx="0" cy="0" r="12" fill="white"/>
    <circle cx="0" cy="0" r="8" fill="#FFD700" opacity="0.8"/>
    <circle cx="0" cy="0" r="4" fill="white"/>
    
  </g>
</svg>